<?xml version="1.0" encoding="utf-8"?>
<!-- Generator: Adobe Illustrator 18.0.0, SVG Export Plug-In . SVG Version: 6.00 Build 0)  -->
<!DOCTYPE svg PUBLIC "-//W3C//DTD SVG 1.1//EN" "http://www.w3.org/Graphics/SVG/1.1/DTD/svg11.dtd">
<svg version="1.1" id="Camada_1" xmlns="http://www.w3.org/2000/svg" xmlns:xlink="http://www.w3.org/1999/xlink" x="0px" y="0px"
	 viewBox="0 0 617.7 792" enable-background="new 0 0 617.7 792" xml:space="preserve">
<g>
	<path fill="#EF4123" d="M459.1,304.1c75.3,39.1,133.9,93.1,153.4,179.3c14.9,67.8-3.4,128.7-48.3,181
		c-43.1,50-98.3,80.5-160.9,98.3c-1.7,0.6-4.6,2.9-6.9,0c26.4-11.5,50-27.6,68.4-50c37.9-46.5,40.2-106.3,6.3-158.6
		c-19-29.9-44.8-52.9-74.1-71.8c-28.7-19-58-36.8-86.8-55.2c-12.1-7.5-22.4-16.7-32.2-27c-13.8-15.5-24.1-32.2-19.5-55.7
		c-6.9,5.2-11.5,10.9-15.5,16.7c-24.7,33.9-25.9,69-3.4,104.6c8.6,13.2,19,24.7,29.3,36.2c13.2,14.4,19.5,31.6,16.7,51.1
		c-5.2,33.9-46,50.6-76.4,31.6c-19-12.1-27-31.6-21.8-56.3c0.6-2.9,1.1-6.3,2.3-10.3c-10.3,6.3-18.4,13.8-26.4,21.8
		c-22.4,21.8-39.1,47.1-46.5,78.2c-9.2,39.1,1.1,73.6,25.9,104c13.8,17.2,31,30.5,50.6,40.8c-0.6,1.7-2.3,1.1-2.9,1.1
		c-64.4-17.2-118.4-49.4-155.2-106.3C6.9,613.8-2.9,565.5,1.7,513.8c5.7-66.1,34.5-122.4,74.1-174.1
		c33.3-43.7,73.6-81.6,114.9-118.4c25.9-23,52.3-45.4,73.6-73c15.5-20.1,28.7-41.9,34.5-67.2c4-17.2,2.9-33.9-4.6-50.6
		c0.6-0.6,0.6-1.1,1.1-1.1c48.8,39.7,81,88.5,78.7,154c-0.6,20.1-7.5,38.5-13.2,57.5c-5.7,19-10.9,37.4-9.2,57.5
		c1.1,17.2,8,32.2,20.1,44.2c27,27,77,14.9,86.8-20.7C462,315,458,309.8,459.1,304.1L459.1,304.1z"/>
	<path fill="#EE4123" d="M294.8,29.9c-0.6-0.6-2.9-1.7-1.1-2.9c0.6-0.6,1.7,0.6,2.3,1.1C295.9,29.4,295.4,29.4,294.8,29.9z"/>
	<path fill="#EE4123" d="M459.7,304.1c-0.6,0-0.6,0-1.1,0v-0.6C458.6,304.1,459.1,304.1,459.7,304.1
		C459.1,304.1,459.7,304.1,459.7,304.1z"/>
</g>
</svg>
