<?xml version="1.0" encoding="utf-8"?>
<!-- Generator: Adobe Illustrator 18.0.0, SVG Export Plug-In . SVG Version: 6.00 Build 0)  -->
<!DOCTYPE svg PUBLIC "-//W3C//DTD SVG 1.1//EN" "http://www.w3.org/Graphics/SVG/1.1/DTD/svg11.dtd">
<svg version="1.1" id="Camada_1" xmlns="http://www.w3.org/2000/svg" xmlns:xlink="http://www.w3.org/1999/xlink" x="0px" y="0px"
	 viewBox="0 0 660.2 925.2" enable-background="new 0 0 660.2 925.2" xml:space="preserve">
<g>
	<path fill="#EF4123" d="M384.5,16.4c-1.5,0.1-2.7-0.2-2.8-2c3.7,0,7.3,0,11,0c0,0.3,0,0.6,0,0.9C390,15.9,387,14.1,384.5,16.4z"/>
	<path fill="#EF4123" d="M277.7,14.4c-0.1,2.1-1.5,2.1-3,2c-2.1-2.2-4.7-0.5-7-1.1c0-0.3,0-0.6,0-0.9
		C271.1,14.4,274.4,14.4,277.7,14.4z"/>
	<path fill="#EF4123" d="M392.7,15.3c0-0.3,0-0.6,0-0.9c1,0,2,0,3,0c0,0.3,0,0.7,0,1C394.7,15.4,393.7,15.3,392.7,15.3z"/>
	<path fill="#EF4123" d="M267.7,14.4c0,0.3,0,0.6,0,0.9c-1,0-2,0.1-3,0.1c0-0.4,0-0.7,0-1.1C265.7,14.4,266.7,14.4,267.7,14.4z"/>
	<path fill="#EF4123" d="M221.6,317.4c-0.8-19-0.9-38,0-57c1.6-1.9,1.4-3.9,0.3-6c-0.9-13.8,0.7-27.5,2.4-41
		c1.7-13.8,3.7-27.6,6.2-41.4c3.6-19.9,8.5-39.4,15.1-58.4c7.7-22.3,17.1-43.8,31.7-62.6C288,37,300.7,25.6,319,22.2
		c16.1-3,29.8,1.9,42.4,11.4c14.4,10.8,24.7,25.1,33.1,40.6c15.8,29.1,25.4,60.3,31.4,92.8c3.8,20.7,6.3,41.5,8.1,62.4
		c2.5,30.1,2.3,60.2,1.5,90.3c-0.5,19.6-2,39.1-3.9,58.6c-1.9,19.4-4.1,38.8-6.6,58.2c-3,23.3-6.6,46.5-10.5,69.7
		c-3.8,22.8-8.5,45.5-13,68.1c-4.7,23.4-9.9,46.6-15.8,69.7c-12.8,50.3-24.6,100.9-40.9,150.2c-0.4,1.3-1,2.5-1.4,3.7
		c-1.5,5.5-5.4,7.4-10.6,6.4c-5.1-1-10.2-1-15.3-1c-2.2,0-3.4-1-4-2.9c-4.3-13.7-8.3-27.5-11.9-41.4c-1.8-6.9-3.8-13.9-6-20.8
		c-4.2-12.9-7.1-26.2-10.6-39.4c-3.4-13-7.2-25.8-10.2-38.9c-3.9-17.2-8.7-34.2-12-51.6c-1.6-8.5-4.2-16.8-6-25.2
		c-3.5-16.8-6.5-33.8-10-50.6c-3.1-15.1-5.5-30.2-7.9-45.4c-2.7-16.5-6.2-32.9-7.7-49.4c-0.9-10-2.6-19.9-3.5-29.9
		c-1.1-11.8-1.5-23.6-3.7-35.3c-1.1-5.8-0.5-11.8-1-17.8c-1.1-10.7-0.8-21.5-1.1-32.3C222.9,320.6,223,319,221.6,317.4z"/>
	<path fill="#EF4123" d="M392.7,15.3c1,0,2,0.1,3,0.1c12.7,2.6,25.1,6.6,37,11.4c12.4,5,24.2,11.6,36.1,17.8
		c21.5,11.2,40.3,26.3,57,43.7c16.3,16.9,29.9,35.9,41.1,56.6c14.2,26.4,24.8,54.2,30,83.8c1.5,8.5,2.4,17,3.6,25.6
		c-0.6,1.7-0.9,3.4,0.3,5c0.9,14,0.8,28.1,0,42.1c-1.2,1.6-1.1,3.3-0.2,5c-1.7,14.3-3.3,28.7-6,42.9c-6.5,34.2-16,67.5-27.5,100.4
		c-10.1,29.2-22.6,57.3-34.6,85.7c-5.4,12.8-12,25.1-18.4,37.5c-7.9,15.3-16,30.5-24.3,45.7c-6.5,11.8-13.3,23.4-20.1,35
		c-17.4,29.5-36.5,58-57.5,85c-11.8,15.2-23.3,30.7-37.4,43.9c-4.2,4-8.6,7.8-13.8,12.5c2.2-7.7,6.3-13.4,9.4-19.5
		c5.6-11,11.6-21.8,17.3-32.7c5.6-10.8,11.3-21.5,16.5-32.4c6.6-14,13.7-27.8,19.8-42c4.7-11,10.1-21.7,14.8-32.8
		c6-14.4,12.1-28.8,17.9-43.3c5.5-13.9,11-27.8,16-41.9c5.3-14.8,10.2-29.8,15-44.7c3.6-11,7-22.1,9.9-33.3
		c4.3-16.3,8.3-32.6,12.1-49c2.4-10.4,5-20.7,6.4-31.3c1.5-10.4,3.8-20.6,4.6-31.1c0.8-9.4,2.6-18.8,3.8-28.2
		c0.6-4.7,0.7-9.6,0.9-14.3c0.9-15.6,2.9-31.1,1.8-46.7c-0.9-13.3-2.6-26.6-3.4-39.9c-0.6-10.3-3.6-20-4.6-30.2
		c-0.5-5.4-2.3-10.9-3.7-16.3c-4.5-16.6-9.9-33-17.2-48.6c-6.6-14.1-14.4-27.6-23.3-40.5C467.7,85,459.1,74.8,449.9,65
		c-18.9-20.1-41-35.9-65.4-48.6C387,14.1,390,15.9,392.7,15.3z"/>
	<path fill="#EF4123" d="M264.7,15.4c1,0,2-0.1,3-0.1c2.3,0.6,5-1.1,7,1.1c-17.3,6.7-31.2,18.6-45,30.5c-6.6,5.6-12.6,11.9-19,17.7
		c-17.7,16.3-30.7,36.1-41.9,57.2c-12.3,23.1-20.6,47.6-26.5,73.1c-7.6,33.1-9.9,66.6-9.3,100.3c0.5,24.4,2.7,48.6,6.3,72.8
		c5.2,34.5,12.6,68.6,21.9,102.2c10.7,38.7,23.6,76.5,38.1,113.9c15.1,38.8,31.5,77,50.2,114.3c15.2,30.4,31.1,60.5,46.7,90.7
		c0.8,1.5,1.4,3,2.2,4.5c-1.4,1.3-2.5,0.5-3.5-0.4c-9.1-8.1-17.2-17.2-24.9-26.5c-9.4-11.3-18.6-22.7-27.6-34.3
		c-5.9-7.6-11.1-15.6-16.7-23.4c-11.6-16.1-22.9-32.5-33-49.5c-9.5-15.9-18.3-32.4-27.1-48.8c-7.9-14.7-15.4-29.6-22.9-44.5
		c-5.6-11.1-11-22.5-16.2-34c-7.2-15.9-14.1-32-20.9-48c-7.3-17.2-13.7-34.7-19.9-52.3c-3.8-10.8-6.3-22-9.7-32.9
		c-3.9-12.2-6.6-24.8-8.9-37.3c-2.5-14.1-5.7-28.2-5.8-42.7c0-0.5-0.3-1-0.4-1.4c0.6-1.1,0.5-2.1-0.3-3.1c-1.3-20-1.4-40,0-60.1
		c1-0.9,1-1.9,0.2-3c1.7-15,4.3-29.9,7.9-44.5c3.5-14.4,8.5-28.3,14.5-41.9c8.9-20.2,20-39.1,33.4-56.6c7.2-9.4,15.6-17.7,23.7-26.3
		c5.9-6.4,12.8-11.5,19.5-16.9c11.1-9.1,23.2-16.5,35.9-23.2C217.6,30.3,240.3,20.7,264.7,15.4z"/>
	<path fill="#EF4123" d="M268.8,788.4c-4-3.5-8.1-6.7-11.6-10.4c-9.2-9.6-18.5-19.1-27.2-29.1C218,735.1,206.4,721,195,706.7
		c-15.9-20-31.2-40.5-45.5-61.6c-11.7-17.2-23.5-34.3-34-52.2c-6.2-10.7-13.5-20.7-19.5-31.5c-11.8-21.1-23.5-42.3-34.1-64
		c-8.3-17-16.2-34.2-23.2-51.7c-7.1-18-13.6-36.2-19.3-54.8c-5.5-17.7-9.9-35.7-13.2-53.8c-2.1-11.7-4.1-23.5-4.6-35.6
		c-0.4-9.5-1.9-19.2-1.5-28.6c0.7-16.9,1.7-33.7,5.4-50.4c3.1-13.8,6.8-27.3,12.1-40.4c7.9-19.5,18.8-37.4,31.9-53.8
		c9.6-12.1,19.8-23.6,31.1-34.1c14.3-13.2,29.4-25.3,47.2-33.7c2.6-1.3,5.3-2.5,9.5-3c-6.3,5.1-11.7,9.4-17.1,13.8
		c-17,13.5-31.7,29.3-44.7,46.7c-15.3,20.5-27,42.7-35.1,66.9c-7.3,22-11.4,44.5-13,67.7c-2.1,30.9,0.4,61.4,5.9,91.7
		c5,27.8,12.7,54.8,21.9,81.4c11.4,32.9,25.3,64.9,40.9,96.1c22.2,44.3,47.1,86.9,74.3,128.3c24.2,36.9,49.8,72.9,76.6,108
		c7.1,9.2,14.5,18.2,21.2,27.6C268.8,786.2,269.6,786.8,268.8,788.4z"/>
	<path fill="#EF4123" d="M394.2,783.8c3.3-7,8.8-12.5,13.4-18.6c8-10.7,16.4-21.1,24.4-31.7c6.2-8.2,12-16.6,18.1-24.8
		c11.4-15.5,21.9-31.8,32.7-47.7c6.8-10,13.4-20,20-30.1c2.6-4,5-8.2,7.5-12.3c8.6-13.9,17-27.8,24.8-42.2
		c5.3-9.8,10.6-19.8,16-29.6c5.6-10.2,10.5-20.8,15.6-31.3c4.5-9.2,9.2-18.3,13.2-27.6c9-20.5,18.2-40.9,25.6-62.1
		c3.7-10.7,7.1-21.6,10.2-32.5c2.8-9.8,5.1-19.7,7.4-29.6c1.6-7.2,3.4-14.4,4.3-21.7c1-8.3,3.3-16.4,3.6-24.8
		c0.3-10,2.5-19.9,3.1-30c1.1-19,1.2-38-1.6-56.8c-2-13.5-5-27-9.5-39.8c-4.7-13.4-9.8-26.5-16.9-39c-7.3-12.8-14.3-25.7-23.2-37.6
		c-13.3-17.6-29-32.6-46.8-45.5c-3.7-2.7-6.9-6.2-11-9.9c5.4,0.6,9.2,3.1,13,5.1c11.9,6.2,22.3,14.6,32.6,23.3
		c17,14.4,32.4,30.2,45.6,48c12.4,16.7,21.7,35.2,29.1,54.6c6.8,17.8,11.3,36.2,13.3,55.2c2.3,21.4,1.4,42.6-0.9,64
		c-5.4,49.6-20,96.8-38.5,142.8c-15.7,39-34.5,76.4-56.3,112.4c-13.4,22.1-26.8,44.2-41.1,65.7c-19.4,29.1-40.2,57.2-62.4,84.4
		c-16.4,20.1-32.9,40-50.9,58.7c-4.2,4.4-9,8.2-13.5,12.2C394.9,784.4,394.5,784.1,394.2,783.8z"/>
	<path fill="#EF4123" d="M328.3,842.8c21.2,0,42.3,0.1,63.5-0.1c3.8,0,4.5,1.3,3.7,4.7c-5.6,24.3-11.3,48.5-16.6,72.8
		c-0.9,3.9-2.2,5-6.1,5c-29.5-0.2-59-0.3-88.5,0.1c-5.5,0.1-6.6-2.4-7.4-6.5c-1.7-8.6-3.3-17.2-5.1-25.7
		c-2.2-10.3-4.6-20.5-6.9-30.8c-1.1-5.1-1.3-10.5-3.2-15.1c-2.1-5.1,0.7-4.5,3.7-4.5c21,0,42,0,63,0
		C328.3,842.7,328.3,842.7,328.3,842.8z"/>
	<path fill="#EF4123" d="M221.8,254.3c1,2.1,1.3,4.1-0.3,6C220.4,258.3,220.3,256.3,221.8,254.3z"/>
	<path fill="#EF4123" d="M221.6,317.4c1.5,1.6,1.3,3.3,0.2,5C220.3,320.8,220.4,319.1,221.6,317.4z"/>
	<path fill="#EF4123" d="M600.6,306.4c-0.8-1.7-1-3.4,0.2-5C602.1,303.1,602.2,304.8,600.6,306.4z"/>
	<path fill="#EF4123" d="M600.9,259.3c-1.3-1.6-0.9-3.3-0.3-5C602.3,255.8,602.1,257.5,600.9,259.3z"/>
	<path fill="#EF4123" d="M60.6,314.4c0.9,0.9,1,2,0.3,3.1C59.5,316.6,59.3,315.6,60.6,314.4z"/>
	<path fill="#EF4123" d="M60.8,251.3c0.8,1,0.9,2-0.2,3C59.4,253.3,59.5,252.3,60.8,251.3z"/>
</g>
</svg>
