<svg xmlns="http://www.w3.org/2000/svg" xmlns:xlink="http://www.w3.org/1999/xlink" preserveAspectRatio="xMidYMid" width="26" height="26" viewBox="0 0 26 26">
  <defs>
    <style>
      .cls-1 {
        fill: #000;
        fill-rule: evenodd;
      }
    </style>
  </defs>
  <path d="M24.472,14.442 L21.314,11.284 L15.798,16.800 C14.655,17.943 12.804,17.941 11.661,16.801 L9.254,14.392 C8.111,13.250 8.110,11.397 9.254,10.254 L14.769,4.738 L11.552,1.520 C10.557,0.527 10.426,0.019 12.311,0.017 L22.561,0.017 C26.001,0.016 25.976,-0.001 25.977,3.434 L25.977,13.685 C25.977,15.570 25.572,15.543 24.472,14.442 ZM8.296,8.012 L4.870,8.012 C3.837,8.012 2.997,8.853 2.997,9.886 L2.997,21.129 C2.997,22.162 3.837,23.003 4.870,23.003 L16.111,23.003 C17.144,23.003 17.984,22.162 17.984,21.129 L17.984,17.765 L20.982,14.766 L20.982,21.129 C20.982,23.820 18.802,26.001 16.111,26.001 L4.870,26.001 C2.179,26.001 -0.001,23.820 -0.001,21.129 L-0.001,9.886 C-0.001,7.195 2.179,5.014 4.870,5.014 L11.295,5.014 L8.296,8.012 Z" class="cls-1"/>
</svg>
