<svg xmlns="http://www.w3.org/2000/svg" xmlns:xlink="http://www.w3.org/1999/xlink" preserveAspectRatio="xMidYMid" width="800" height="477" viewBox="0 0 800 477">
  <defs>
    <style>
      .cls-1 {
        fill: #000;
        fill-rule: evenodd;
      }
    </style>
  </defs>
  <path d="M400.000,0.000 C247.184,0.000 108.603,83.647 6.344,219.511 C-2.000,230.643 -2.000,246.193 6.344,257.325 C108.603,393.353 247.184,477.000 400.000,477.000 C552.816,477.000 691.397,393.353 793.655,257.488 C802.000,246.357 802.000,230.806 793.655,219.675 C691.397,83.647 552.816,0.000 400.000,0.000 ZM410.962,406.448 C309.521,412.831 225.751,329.186 232.132,227.532 C237.367,143.722 305.267,75.790 389.037,70.551 C490.478,64.167 574.248,147.814 567.868,249.467 C562.469,333.113 494.569,401.046 410.962,406.448 ZM405.890,328.857 C351.243,332.296 306.085,287.280 309.685,232.607 C312.466,187.428 349.116,150.925 394.274,147.978 C448.921,144.541 494.078,189.556 490.478,244.229 C487.534,289.572 450.883,326.075 405.890,328.857 Z" class="cls-1"/>
</svg>
