<?xml version="1.0" encoding="utf-8"?>
<!-- Generator: Adobe Illustrator 18.0.0, SVG Export Plug-In . SVG Version: 6.00 Build 0)  -->
<!DOCTYPE svg PUBLIC "-//W3C//DTD SVG 1.1//EN" "http://www.w3.org/Graphics/SVG/1.1/DTD/svg11.dtd">
<svg version="1.1" id="Layer_1" xmlns="http://www.w3.org/2000/svg" xmlns:xlink="http://www.w3.org/1999/xlink" x="0px" y="0px"
	 viewBox="0 90 612 612" enable-background="new 0 90 612 612" xml:space="preserve">
<g>
	<path fill="#EF4123" d="M250.4,296.5c-4.8,19.2-33.8,129.9-33.8,129.9h71c0,0-31.6-110.7-36.3-129.9H250.4z"/>
	<path fill="#EF4123" d="M0,90v612h612V90H0z M322.8,562.9L298,480.7h-91.7l-23,82.2h-75.2l98.1-320.5h95l99.4,320.5H322.8z
		 M501.4,562.9H429V330.5h72.4V562.9L501.4,562.9z M464.8,301.9c-22.8,0-38.1-16.2-37.6-36.1c-0.5-21,14.8-36.6,38.1-36.6
		c23.3,0,37.9,15.7,38.5,36.6C503.8,285.6,488.7,301.9,464.8,301.9z"/>
</g>
</svg>
