<?xml version="1.0" encoding="utf-8"?>
<!-- Generator: Adobe Illustrator 18.0.0, SVG Export Plug-In . SVG Version: 6.00 Build 0)  -->
<!DOCTYPE svg PUBLIC "-//W3C//DTD SVG 1.1//EN" "http://www.w3.org/Graphics/SVG/1.1/DTD/svg11.dtd">
<svg version="1.1" id="Camada_1" xmlns="http://www.w3.org/2000/svg" xmlns:xlink="http://www.w3.org/1999/xlink" x="0px" y="0px"
	 viewBox="103.5 211.5 408.5 114.6" enable-background="new 103.5 211.5 408.5 114.6" xml:space="preserve">
<g id="Layer_5">
	<path fill="#EF4123" d="M219.7,256.3L219.7,256.3l-3.3,11.5L219.7,256.3L219.7,256.3z"/>
	<path fill="#EF4123" d="M236.5,281.3l-3.6,0L236.5,281.3z"/>
	<path fill="#EF4123" d="M235.5,298.5L235.5,298.5l-21.5,0.1L235.5,298.5L235.5,298.5z"/>
	<path fill="#EF4123" d="M240,281.3l-3.6,0L240,281.3z"/>
	<path fill="#EF4123" d="M237.4,297l3.7-14.3L237.4,297L237.4,297L237.4,297z"/>
	<path fill="#EF4123" d="M316.4,231.4l-7,32.7L316.4,231.4z"/>
	<path fill="#EF4123" d="M298.5,231.4l-5.3,24.5L298.5,231.4L298.5,231.4z"/>
	<path fill="#EF4123" d="M315.2,229.9h-14.9c-0.8,0-1.6,0.7-1.8,1.5l-5.3,24.5l-5.3,24.5c-0.2,0.8-1,1.5-1.8,1.5h-9h-1.5
		c-10.4,0-9.2-7.2-7.1-17.1c0-0.1,0-0.2,0.1-0.3l0.2-1.2c0-0.1,0-0.2,0-0.2l0.5-2.5l0.5-2.7c0.2-0.8,0.4-2,0.5-2.8l2.4-11.7
		l2.4-11.7c0.2-0.8-0.4-1.5-1.2-1.5h-15.3c-0.8,0-1.6,0.7-1.8,1.5l-3.3,15.6l-3.3,15.6c0,0,0,0,0,0L250,264
		c-3.8,17.3-2.8,33.8,17.8,34.3c0.3,0,0.6,0,0.6,0h32.3c0.8,0,1.6-0.7,1.8-1.5l7-32.7l7-32.7C316.6,230.5,316.1,229.9,315.2,229.9
		L315.2,229.9z"/>
	<path fill="#EF4123" d="M374.6,281.9c0.8,0,1.4,0.7,1.2,1.5l-1.4,7.1"/>
	<path fill="#EF4123" d="M372.9,297.5l1.4-7.1L372.9,297.5C372.9,297.5,372.9,297.5,372.9,297.5L372.9,297.5z"/>
	<path fill="#EF4123" d="M371.1,299C371.1,299,371.1,299,371.1,299c-4.4,0-17.5,0.1-27.4,0.1C355.7,299.1,371.1,299,371.1,299
		L371.1,299z"/>
	<path fill="#EF4123" d="M334.8,272.8c0-0.8,0.9-2.1,1.7-2.1l-1.9,0C333.8,279.1,334.8,272.8,334.8,272.8L334.8,272.8z"/>
	<path fill="#EF4123" d="M345,299.1c-0.1,0-0.2,0-0.3,0C344.9,299.1,345,299.1,345,299.1z"/>
	<path fill="#EF4123" d="M374.6,281.9c0.8,0,1.4,0.7,1.2,1.5l-1.4,7.1l-0.2,1.2"/>
	<path fill="#EF4123" d="M352.1,299.1L352.1,299.1L352.1,299.1z"/>
	<path fill="#EF4123" d="M348.4,299.1h-0.2H348.4z"/>
	<path fill="#EF4123" d="M347.3,299.1c-0.1,0-0.2,0-0.4,0C347.1,299.1,347.2,299.1,347.3,299.1z"/>
	<path fill="#EF4123" d="M346.2,299.1h-0.3H346.2z"/>
	<path fill="#EF4123" d="M348.2,299.1c-0.3,0-0.6,0-0.9,0C347.6,299.1,347.9,299.1,348.2,299.1z"/>
	<path fill="#EF4123" d="M352,299.1c-1.2,0-2.4,0-3.6,0C349.6,299.1,350.8,299.1,352,299.1z"/>
	<path fill="#EF4123" d="M371.1,299L371.1,299c-3.2,0-11.1,0.1-19,0.1C360,299.1,367.9,299,371.1,299z"/>
	<path fill="#EF4123" d="M372.9,297.5l1.2-5.9L372.9,297.5C372.9,297.5,372.9,297.5,372.9,297.5L372.9,297.5z"/>
	<path fill="#EF4123" d="M347,299.1h-0.8H347z"/>
	<path fill="#EF4123" d="M344.8,299.1h-1.1H344.8z"/>
	<path fill="#EF4123" d="M345.9,299.1H345H345.9z"/>
	<path fill="#EF4123" d="M128.1,273l2.3-10.3l-2.6,11.7l-2.5,11.9l2.2-10.5C127.6,275.1,127.9,273.8,128.1,273L128.1,273z"/>
	<path fill="#EF4123" d="M155.8,229.7h-16.4c-0.8,0-1.7,0.7-1.8,1.5L136,238l-1.6,6.8c-0.2,0.8,0.3,1.5,1.2,1.5h16.5
		c0.8,0,1.6-0.7,1.8-1.5l1.5-6.8l1.5-6.8v0C157.1,230.4,156.6,229.7,155.8,229.7L155.8,229.7z"/>
	<path fill="#EF4123" d="M152.2,252.5L152.2,252.5l-4.8,22.2L152.2,252.5z"/>
	<path fill="#EF4123" d="M104.7,326c0,0,8.2,0.1,13.5,0.1C114.2,326.1,107.6,326,104.7,326C104.7,326,104.7,326,104.7,326L104.7,326
		z"/>
	<path fill="#EF4123" d="M132.7,252.5l-2.3,10.3L132.7,252.5z"/>
	<path fill="#EF4123" d="M151,251h-16.5c-0.8,0-1.7,0.7-1.8,1.5l-2.3,10.3l-2.3,10.3c-0.2,0.8-0.5,2.1-0.6,2.9l-2.2,10.5l-2.2,10.5
		c-0.2,0.8-0.5,2.1-0.8,2.9c0,0-3.1,9.2-8.3,9.1c-0.2,0-0.4,0-0.6,0c-2.5,0-4.5-0.1-4.5-0.1h0c-0.8,0-1.7,0.6-1.8,1.4l-1.7,7.2
		l-1.7,7.2c-0.2,0.8,0.3,1.5,1.1,1.5c2.9,0,9.5,0.1,13.5,0.1c12.9,0,19.7-7.2,24.1-27.8l5.1-23.7l4.8-22.2
		C152.4,251.7,151.8,251,151,251L151,251z"/>
	<path fill="#EF4123" d="M385.1,298.3c-0.8,0-1.4-0.7-1.2-1.5l12.4-58.1"/>
	<path fill="#EF4123" d="M402.4,296.8l5-24.8L402.4,296.8z"/>
	<path fill="#EF4123" d="M384.1,297.6c-0.1-0.4,0-1.4,0.1-2.2l5.9-27.6l-6.2,29c-0.2,0.8,0.4,1.5,1.2,1.5h1.5
		C385.8,298.3,384.2,298,384.1,297.6L384.1,297.6z"/>
	<path fill="#EF4123" d="M401.4,298c-0.5,0.2-1.5,0.3-2.3,0.3h1.5c0.8,0,1.6-0.7,1.8-1.5l0.3-1.5C402.5,296.1,401.8,297.8,401.4,298
		L401.4,298z"/>
	<path fill="#EF4123" d="M404.9,284.4l2.2-10.9c0,0,0,0,0,0L404.9,284.4L404.9,284.4z"/>
	<path fill="#EF4123" d="M453.8,242.6l0.7,2.8c0.2,0.8-0.3,1.5-1.2,1.5"/>
	<path fill="#EF4123" d="M402.7,295.3l2.2-10.9L402.7,295.3z"/>
	<path fill="#EF4123" d="M453.1,239.7l0.7,2.9L453.1,239.7z"/>
	<path fill="#EF4123" d="M407.1,273.5c0.2-0.8,0.4-2.1,0.6-2.9l2.4-11.1l-2.7,12.5L407.1,273.5L407.1,273.5z"/>
	<path fill="#EF4123" d="M396.5,237.8c-0.2,0.8-0.4,1.8-0.5,2.4l-5.9,27.6l6.2-29L396.5,237.8L396.5,237.8z"/>
	<path fill="#EF4123" d="M454.5,245.5l-0.7-2.8l-0.7-2.9l-0.3-1.5c-1.3-5.2-5.3-8.2-13.8-8.2l-13.3,0l-12.2,0h-1h-12.7
		c-0.8,0-1.6,0.7-1.8,1.5l0,0l-0.6,2.9l-0.7,3.4l-0.2,1l-6.2,29l-5.9,27.6c-0.2,0.8-0.2,1.8-0.1,2.2c0.1,0.4,1.7,0.7,2.5,0.7h12.4
		c0.8,0,1.9-0.1,2.3-0.3c0.5-0.2,1.1-1.8,1.3-2.6l2.2-10.9l2.2-10.9c0,0,0,0,0,0l0.3-1.5l2.7-12.5l2.4-11.1c0.2-0.8,1-1.5,1.8-1.5
		l39.1,0C454.1,246.9,454.7,246.3,454.5,245.5L454.5,245.5z"/>
	<path fill="#EF4123" d="M504.8,219.9c-0.8,0-2.2,0-3,0h-12.5c-0.8,0-1.9,0.6-2.4,1.2l-27.7,40.5c-0.5,0.7-1,0.6-1.2-0.2l-2-8.9
		c-0.2-0.8-1-1.5-1.8-1.5h-17.8c-0.8,0-1.3,0.6-1.1,1.4l8,27.9c0.2,0.8,0.2,2.1,0,2.9l-3.5,13.5c-0.2,0.8,0.3,1.5,1.1,1.5h17.6
		c0.8,0,1.7-0.7,1.9-1.5l3.5-13.5c0.2-0.8,0.8-2,1.3-2.7l44.9-59.6c0.5-0.7,0.2-1.2-0.6-1.2L504.8,219.9L504.8,219.9z"/>
	<path fill="#EF4123" d="M363.5,254.9L363.5,254.9c-0.1,0.9-0.9,1.5-1.8,1.5h-22.5c-0.8,0-1.2-0.5-1.1-1.2c0,0,0,0,0-0.1
		c0,0,0,0,0,0c0,0,0,0,0-0.1c0,0,0-0.2,0.1-0.4c2.2-5.7,6.5-9.5,14.8-9.5C362.3,245.3,364.1,249.8,363.5,254.9L363.5,254.9z
		 M356.9,228.9c-28.9,0-35.8,17.6-39.6,35.3c-3.8,18.1-3.5,35,26.4,35h1.1c0.1,0,0.2,0,0.3,0h0.8h0.3h0.8c0.1,0,0.2,0,0.4,0
		c0.3,0,0.6,0,0.9,0h0.2c1.2,0,2.4,0,3.6,0h0.1c7.9,0,15.8-0.1,19.1-0.1c0.8,0,1.6-0.7,1.8-1.5l1.2-5.9l0.2-1.2l1.4-7.1
		c0.2-0.8-0.4-1.5-1.2-1.5h-26.9c-10.7,0-13.9-2.8-12.7-11.2h43l0,0c0,0,0,0,0,0c0.7,0,1.3-0.5,1.6-1.1c0-0.1,0.1-0.2,0.1-0.4l0,0
		C386.1,245.1,384.3,228.9,356.9,228.9L356.9,228.9z"/>
	<path fill="#EF4123" d="M220.2,254.8l-0.4,1.4c0,0,0,0,0,0l-3.2,11.5l-3.2,11.5c-0.2,0.8-1.1,1.4-1.9,1.4h-17.2
		c-13,0-16.2-10.2-13-25.3c3.2-15.4,9.4-25,22.2-25.9C220.9,228.2,224.4,240.6,220.2,254.8L220.2,254.8z M231.9,279.8
		c0,0,8.1-19.7,9.9-31.1c2.5-15.2-5.1-37.3-34.5-37.3c-29.3,0-42,21.1-46.8,44c-4.8,23.1,1.5,43.3,30.6,43.2l23-0.1l21.5-0.1
		c0.8,0,1.7-0.7,1.9-1.5l3.7-14.3c0.2-0.8-0.3-1.5-1.1-1.5l-3.6,0l-3.6,0c-0.7,0-1.1-0.5-1-1.1C231.9,280.1,231.9,280,231.9,279.8
		L231.9,279.8z"/>
	<path fill="#EF4123" d="M376.8,266.7c0,0.5-0.4,1-1,1c-0.5,0-1-0.4-1-1c0-0.5,0.4-1,1-1C376.4,265.7,376.8,266.1,376.8,266.7z"/>
</g>
</svg>
