<?xml version="1.0" encoding="utf-8"?>
<!-- Generator: Adobe Illustrator 18.0.0, SVG Export Plug-In . SVG Version: 6.00 Build 0)  -->
<!DOCTYPE svg PUBLIC "-//W3C//DTD SVG 1.1//EN" "http://www.w3.org/Graphics/SVG/1.1/DTD/svg11.dtd">
<svg version="1.1" id="Camada_1" xmlns="http://www.w3.org/2000/svg" xmlns:xlink="http://www.w3.org/1999/xlink" x="0px" y="0px"
	 viewBox="0 383.4 612 408.6" enable-background="new 0 383.4 612 408.6" xml:space="preserve">
<g>
	<path fill="#EF4123" d="M375.4,791c-6.7-2.3-10.8-7.4-14.3-13.1c-10.1-16.3-19.4-33-28.8-49.7c-12-21.4-23.9-42.8-35.8-64.2
		c-0.7-1.2-1.2-1.5-2.6-1.1c-40.1,10.4-80.1,21.1-120.3,31.1c-5.3,1.3-10.6,2.4-16,1.4c-8.4-1.6-13.9-6.9-17.4-14.4
		c-6.6-14.3-13.2-28.6-19.8-43c-31.3-67.7-62.6-135.4-93.8-203.1c-3.2-6.9-6.2-13.8-9.4-20.6c-1.3-2.9-2.1-6-3.1-9
		c0-1.8,0-3.5,0-5.3c1.3-4.5,4.6-6.4,8.9-6.9c2.6-0.3,5.2-0.5,7.8-0.7c10-0.8,20.1-1.7,30.2-2.5c12.9-1.1,25.7-2.1,38.6-3.2
		c12.3-1,24.5-1.9,36.8-2.8c1.3-0.1,2.6,0.2,3.8-0.5c3.7,0,7.5,0,11.3,0c0.4,0.5,1,0.3,1.6,0.4c3,0.7,5.3,2.3,7.2,4.7
		c3.8,4.9,6.7,10.3,9.9,15.7c17.9,29.9,35.7,59.7,53.6,89.5c26.7,44.5,53.3,89.1,80,133.7c1.1,1.8,2.2,3.6,3.2,5.4
		c0.5,0.9,1,1.1,2,0.9c13.3-3.2,26.7-6.4,40.1-9.6c30.8-7.4,61.6-14.8,92.4-22.1c14.9-3.6,29.8-7.1,44.7-10.7c1.8-0.4,1.8-0.4,0.7-2
		c-19.5-27.6-39-55.2-58.5-82.8c-3.5-5-2.5-8.5,3.3-10.5c4.5-1.5,9.2-1.9,13.8-2.7c15.6-2.7,31.1-5.2,46.7-7.8
		c10.3-1.7,20.6-3.4,30.9-5c3.7-0.6,7.1,0.5,10.1,2.8c3.5,2.7,6.2,6,8.9,9.4c21.3,26.4,42.6,52.8,63.9,79.2c1.5,1.8,3.1,3.5,4.1,5.7
		c0,0.7,0,1.3,0,2c-0.5,0.6-0.8,1.4-1.4,2c-1.7,1.5-3.7,2.1-5.8,2.7c-26.3,7-52.6,14-78.8,21c-1.3,0.3-1.7,0.6-0.7,1.9
		c20.8,27.9,41.6,55.8,62.4,83.7c3.7,5,7.4,9.9,10.8,15.1c3.1,4.6,2.1,7.7-2.8,10.2c-2.6,1.4-5.3,2.4-8.1,3.4
		c-46.5,17-93.1,33.7-139.8,50.4c-16.9,6-33.8,12.2-50.9,17.8c-4,1.3-8.1,2.3-12.2,3.4C380.3,791,377.9,791,375.4,791z M142.5,400.2
		c-1.1,0.1-1.8,0.1-2.4,0.2c-9.6,0.8-19.1,1.7-28.7,2.5c-10.6,0.9-21.2,1.8-31.8,2.8c-11.2,1-22.3,2-33.5,2.9
		c-3.8,0.3-4.4,0.5-2.8,4.8c0,0.1,0.1,0.2,0.2,0.3c12.8,26.3,25.6,52.7,38.4,79c10.1,20.8,20.2,41.6,30.3,62.4
		c13.2,27.2,26.3,54.4,39.5,81.6c4.5,9.4,9.1,18.8,13.5,28.2c1.3,2.7,1.3,2.8,4.2,2.2c2.9-0.6,5.7-1.3,8.6-2c29.4-7,58.7-14,88-21
		c4.7-1.1,9.4-2.2,14-3.3c2.2-0.5,2.8-1.6,2-3.6c-0.3-0.9-0.8-1.7-1.3-2.5c-32.5-56.2-65.1-112.4-97.7-168.6
		c-12-20.8-24.1-41.6-36.2-62.5C145.7,401.6,144.9,399.4,142.5,400.2z M385.2,760.2c1.7,0,3.2-0.9,4.7-1.4
		c18.5-6.3,37-12.6,55.6-18.9c37.3-12.6,74.6-25.3,111.8-37.9c2.4-0.8,4.9-1.5,7.1-2.7c1.6-0.9,1.9-1.8,1-3.4
		c-0.7-1.1-1.4-2.2-2.2-3.3c-15.7-21.5-31.4-43-47.1-64.5c-4-5.5-7.9-11-11.9-16.6c-1.8-2.5-3-2.9-5.9-2c-0.8,0.2-1.6,0.5-2.4,0.7
		c-28,7.3-56,14.6-84,21.9c-30,7.8-59.9,15.6-89.8,23.4c-1.3,0.3-1.4,0.6-0.8,1.8c18.2,31.3,36.2,62.7,54.8,93.8
		c1.3,2.2,2.6,4.5,4.3,6.4C381.7,759,383.1,760.2,385.2,760.2z M507.9,586.1c0.2,0,0.5-0.1,0.7-0.2c22.8-5.6,45.5-11.2,68.3-16.8
		c1.2-0.3,2.5-0.7,3.5-1.4c1-0.7,1.3-1.6,0.5-2.7c-0.3-0.4-0.6-0.8-0.9-1.2c-13.7-17.4-27.4-34.8-41.1-52.2c-3.1-3.9-6.1-8-9.3-11.9
		c-1.6-2.1-3.6-3.3-6.4-2.8c-19,3.7-38.1,7-57.1,10.4c-3.7,0.7-7.4,1.2-11.1,2c-2,0.4-2.3,1.2-1.4,3c0.5,0.8,1,1.6,1.6,2.4
		c8.8,12.1,17.6,24.2,26.4,36.3c8.3,11.4,16.6,22.8,24.9,34.1C506.8,585.5,507,586.2,507.9,586.1z"/>
</g>
</svg>
