<?xml version="1.0" encoding="utf-8"?>
<!-- Generator: Adobe Illustrator 18.0.0, SVG Export Plug-In . SVG Version: 6.00 Build 0)  -->
<!DOCTYPE svg PUBLIC "-//W3C//DTD SVG 1.1//EN" "http://www.w3.org/Graphics/SVG/1.1/DTD/svg11.dtd">
<svg version="1.1" id="Layer_1" xmlns="http://www.w3.org/2000/svg" xmlns:xlink="http://www.w3.org/1999/xlink" x="0px" y="0px"
	 viewBox="0 90 612 612" enable-background="new 0 90 612 612" xml:space="preserve">
<g>
	<path fill="#EF4123" d="M200.9,284.8c-14.9,0-25.2,1.5-30.3,3v96.4c6.3,1.4,14,1.8,24.6,1.8c39.2,0,63.6-19.9,63.6-53.4
		C258.5,302.6,237.8,284.8,200.9,284.8z"/>
	<path fill="#EF4123" d="M0,90v612h612V90H0z M301.6,408.4c-25,23.7-62.4,34.3-106,34.3c-9.6,0-18.4-0.3-25.1-1.3v116.8H97.3V235.9
		c22.7-3.8,54.7-6.8,99.7-6.8c45.6,0,78,8.6,99.8,26.2c21,16.4,34.9,43.6,34.9,75.6C331.7,362.8,321.1,390,301.6,408.4z
		 M411.9,562.9c-31,0-58.7-6.8-76.6-16.5l13.1-52.7c13.6,8.1,41.6,17.9,63.5,17.9c22.2,0,31.5-7.8,31.5-19.9s-7.3-17.9-34.8-27.1
		c-49.1-16.4-67.9-43.1-67.4-71.3c0-44.1,37.8-77.5,96.4-77.5c27.7,0,52.4,6.3,66.9,13.6l-13.1,50.9c-10.8-5.8-31-13.6-51.4-13.6
		c-17.9,0-28,7.3-28,19.4c0,11.1,9.1,16.9,38.1,27.2c45.1,15.4,64,38.3,64.5,73.1C514.7,530.5,479.7,562.9,411.9,562.9z"/>
</g>
</svg>
