<?xml version="1.0" encoding="utf-8"?>
<!-- Generator: Adobe Illustrator 18.0.0, SVG Export Plug-In . SVG Version: 6.00 Build 0)  -->
<!DOCTYPE svg PUBLIC "-//W3C//DTD SVG 1.1//EN" "http://www.w3.org/Graphics/SVG/1.1/DTD/svg11.dtd">
<svg version="1.1" id="Camada_1" xmlns="http://www.w3.org/2000/svg" xmlns:xlink="http://www.w3.org/1999/xlink" x="0px" y="0px"
	 viewBox="0 0 500.2 499.9" enable-background="new 0 0 500.2 499.9" xml:space="preserve">
<g>
	<path fill="#EF4123" d="M230,0c13.3,0,26.7,0,40,0c0.4,1,1.3,0.9,2.1,1c10.8,0.9,21.5,2.7,32,4.9
		c134.5,28.8,221.3,166.3,189.5,300.4c-32.2,136.1-167.2,219.2-303.1,186.5C95.4,470,20.2,389.8,3.8,293.8
		C2.5,286.2,2.4,278.4,0,271c0-14,0-28,0-42c1.4-0.6,0.9-2,1.1-3C2.3,214.2,4.3,202.5,7,191C30.1,93.4,113.2,17.3,212.5,2.8
		C218.4,1.9,224.4,2.2,230,0z M62.7,126.8c4,0,7.4,0,10.8,0c20.7-0.1,41.3-1.5,61.9-2.8c6.7-0.4,10.4,2.6,10.8,8.3
		c0.4,5.8-2.6,9.4-9.1,10.3c-5.9,0.7-11.9,1.1-17.9,1.5c-7,0.5-7,0.4-4.8,6.9c24.6,73.1,49.1,146.2,73.7,219.4
		c1.8,5.3,3.6,10.5,5.9,17c0.9-2.4,1.4-3.5,1.8-4.7c15.4-46.2,30.8-92.4,46.3-138.6c0.9-2.6,0.8-4.7-0.1-7.2
		c-10.8-29.3-21.5-58.7-32.1-88.1c-1.2-3.5-3.2-4.4-6.5-4.6c-6.6-0.4-13.3-1-19.9-1.9c-4.8-0.7-7.5-4.6-7.2-9.2
		c0.3-5.2,3.8-8.8,8.9-8.9c2.5-0.1,5,0.2,7.5,0.3c15.6,0.8,31.3,2,46.9,2.4c21.5,0.5,42.9-1.3,64.4-2.6c6.7-0.4,10.5,2.6,11,8.1
		c0.5,5.8-2.8,9.7-9.5,10.5c-5.9,0.7-11.9,1.1-17.9,1.5c-6.7,0.5-6.7,0.4-4.5,6.7c25.6,76.3,51.3,152.5,77,228.8
		c0.6,1.6,0.5,3.7,2.7,5c11.4-41.3,25.7-81.6,36-123.1c5.5-22.2,3.1-43.9-5.7-65c-4.3-10.3-10-19.9-15.9-29.4
		c-6.1-9.9-12-20-14.8-31.5c-4.8-19.9,3.6-39.7,20.4-48c5.4-2.7,11.2-3.6,17.5-3.8C303.9-7.7,137.4,9.6,62.7,126.8z M254.1,270.2
		c-0.9,2.1-1.3,3-1.6,3.9c-21.5,62.6-43,125.2-64.7,187.7c-1.2,3.5,0.1,4.2,2.9,5c16.3,4.3,32.9,7,49.7,7.7
		c27.6,1.2,54.4-2.6,80.6-11.3c2.2-0.7,3.2-1.1,2.2-4c-16.7-45.2-33.2-90.5-49.7-135.8C267.1,306,260.8,288.7,254.1,270.2z
		 M44.8,159c-25.7,55.8-27.6,128.1,4.1,191.4c21.3,42.5,75.5,95.9,102.4,100.3C115.9,353.6,80.5,256.7,44.8,159z M363.7,442.5
		c0.4,0.2,0.9,0.5,1.3,0.7c58-36.5,94.6-88,106.5-156c8.6-49.6,0.6-97-23.1-141.5c-0.4,2.7-0.3,5.3-0.1,8c1.2,13.7,0.1,27.3-2,40.8
		c-2.9,18.9-9.4,36.6-15.7,54.5c-21.3,61-42.4,122.2-63.5,183.3C365.9,435.6,364.9,439.1,363.7,442.5z"/>
</g>
</svg>
